<svg width="48" height="48" viewBox="0 0 48 48" fill="none" xmlns="http://www.w3.org/2000/svg">
<path d="M40 42L40 38C40 35.8783 39.1571 33.8434 37.6568 32.3432C36.1566 30.8429 34.1217 30 32 30L16 30C13.8783 30 11.8434 30.8429 10.3431 32.3431C8.84285 33.8434 7.99999 35.8783 7.99999 38L7.99999 42M32 14C32 18.4183 28.4183 22 24 22C19.5817 22 16 18.4183 16 14C16 9.58172 19.5817 6 24 6C28.4183 6 32 9.58173 32 14Z" stroke="#333F48" stroke-width="4" stroke-linecap="round" stroke-linejoin="round"/>
</svg>
