<svg width="33" height="40" viewBox="0 0 33 40" fill="none" xmlns="http://www.w3.org/2000/svg">
<rect width="33" height="40" fill="#1E1E1E"/>
<g clip-path="url(#clip0_0_1)">
<rect width="1440" height="3047" transform="translate(-959 -489)" fill="#FAF8FF"/>
<rect width="1440" height="130" transform="translate(-959 -45)" fill="white"/>
<g style="mix-blend-mode:luminosity">
<g clip-path="url(#clip1_0_1)">
<path d="M31.9663 13.6471C29.2627 15.2941 27.5928 18.1176 27.5928 21.2549C27.5928 24.7843 29.7398 28 33 29.3333C32.3639 31.3726 31.4096 33.2549 30.2169 34.9804C28.4675 37.4118 26.6386 39.9216 23.9349 39.9216C21.2313 39.9216 20.4361 38.3529 17.2554 38.3529C14.1542 38.3529 13.041 40 10.4964 40C7.95181 40 6.20241 37.7255 4.21446 34.902C1.59036 30.9804 0.0795181 26.4314 0 21.6471C0 13.8824 5.08916 9.72549 10.1783 9.72549C12.8819 9.72549 15.1084 11.451 16.7783 11.451C18.3687 11.451 20.9133 9.64706 23.9349 9.64706C27.1157 9.56863 30.1374 11.0588 31.9663 13.6471ZM22.5036 6.35294C23.8554 4.78431 24.5711 2.82353 24.6506 0.784314C24.6506 0.54902 24.6506 0.235294 24.5711 0C22.2651 0.235294 20.1181 1.33333 18.6072 3.05882C17.2554 4.54902 16.4602 6.43137 16.3807 8.47059C16.3807 8.70588 16.3807 8.94118 16.4602 9.17647C16.6193 9.17647 16.8578 9.2549 17.0169 9.2549C19.1639 9.09804 21.1518 8 22.5036 6.35294Z" fill="#5A5A5A"/>
</g>
</g>
</g>
<defs>
<clipPath id="clip0_0_1">
<rect width="1440" height="3047" fill="white" transform="translate(-959 -489)"/>
</clipPath>
<clipPath id="clip1_0_1">
<rect width="33" height="40" fill="white"/>
</clipPath>
</defs>
</svg>
