<svg width="37" height="40" viewBox="0 0 37 40" fill="none" xmlns="http://www.w3.org/2000/svg">
<rect width="37" height="40" fill="#1E1E1E"/>
<g clip-path="url(#clip0_0_1)">
<rect width="1440" height="3047" transform="translate(-1064 -489)" fill="#FAF8FF"/>
<rect width="1440" height="130" transform="translate(-1064 -45)" fill="white"/>
<g style="mix-blend-mode:luminosity">
<g clip-path="url(#clip1_0_1)">
<path d="M34.4043 32.3366C34.1251 34.4155 32.7302 36.2144 30.7769 37.0138C29.82 37.4131 28.7838 37.5333 27.7473 37.4131C26.7509 37.2933 25.7542 36.9734 24.718 36.3745C23.2828 35.5743 21.8476 34.3356 20.1735 32.4968C22.8046 29.2591 24.3986 26.301 24.9968 23.6636C25.2759 22.4241 25.3157 21.3049 25.1963 20.2655C25.037 19.2664 24.6782 18.3468 24.1199 17.5473C22.8842 15.7488 20.8115 14.7094 18.4994 14.7094C16.1873 14.7094 14.1146 15.7888 12.8789 17.5473C12.3206 18.3468 11.9622 19.2664 11.8025 20.2655C11.6433 21.3049 11.6831 22.4641 12.0021 23.6636C12.5998 26.301 14.2341 29.2991 16.8253 32.5363C15.191 34.3755 13.716 35.6146 12.2808 36.414C11.2446 37.0138 10.2479 37.3336 9.25155 37.453C8.17517 37.5732 7.1386 37.4131 6.2219 37.0537C4.26863 36.2543 2.87367 34.455 2.59452 32.3766C2.47505 31.3775 2.55469 30.3784 2.95331 29.2591C3.07278 28.859 3.27229 28.4601 3.4714 27.9802C3.75055 27.3409 4.06952 26.6608 4.3881 25.9812L4.42832 25.9017C7.17842 19.9456 10.1284 13.8701 13.1979 7.95468L13.3174 7.7143C13.6363 7.11533 13.9549 6.47603 14.2743 5.87627C14.5929 5.23657 14.9517 4.6368 15.3901 4.1169C16.2272 3.15736 17.3434 2.63785 18.5791 2.63785C19.8147 2.63785 20.9309 3.15736 21.768 4.1169C22.2064 4.6368 22.5652 5.23657 22.8842 5.87627C23.2032 6.47603 23.5218 7.11533 23.8407 7.7143L23.9606 7.95468C26.9898 13.91 29.9399 19.9855 32.6904 25.9417V25.9812C33.0093 26.6209 33.2881 27.3409 33.6071 27.9802C33.8066 28.4601 34.0057 28.859 34.1251 29.2591C34.4441 30.2982 34.5636 31.298 34.4043 32.3366ZM18.4994 30.4579C16.347 27.7402 14.9517 25.1818 14.4734 23.0239C14.2743 22.1043 14.2341 21.3049 14.3539 20.5853C14.4336 19.9456 14.6729 19.3858 14.9915 18.9058C15.7489 17.8277 17.0244 17.1468 18.4994 17.1468C19.9744 17.1468 21.2897 17.7869 22.0073 18.9058C22.3259 19.3858 22.5652 19.9456 22.6449 20.5853C22.7643 21.3049 22.7245 22.1442 22.5254 23.0239C22.0471 25.1422 20.6518 27.7002 18.4994 30.4579ZM36.477 28.3795C36.2779 27.8999 36.0784 27.3804 35.8793 26.9407C35.5603 26.2216 35.2414 25.5416 34.9622 24.9019L34.9224 24.8623C32.1723 18.8663 29.2223 12.7907 26.113 6.79588L25.9935 6.5555C25.6745 5.95573 25.3556 5.31603 25.037 4.67674C24.638 3.95678 24.2393 3.19809 23.6018 2.47813C22.3259 0.879284 20.4925 0 18.5392 0C16.5461 0 14.7526 0.879284 13.4368 2.39866C12.8391 3.11782 12.4007 3.87731 12.0021 4.59727C11.6831 5.23657 11.3641 5.87627 11.0451 6.47603L10.9257 6.71522C7.85659 12.7109 4.86676 18.7868 2.11625 24.7825L2.07643 24.8623C1.79728 25.5016 1.47831 26.1809 1.15933 26.9008C0.960223 27.3409 0.760715 27.8204 0.561605 28.3399C0.0431234 29.8186 -0.116164 31.2178 0.0829454 32.6565C0.521783 35.6545 2.51487 38.173 5.26538 39.2918C6.30154 39.7319 7.37793 39.9315 8.49414 39.9315C8.81311 39.9315 9.21173 39.8916 9.53071 39.8513C10.846 39.6912 12.2012 39.2523 13.5165 38.4924C15.1512 37.5732 16.7058 36.2543 18.4596 34.3356C20.2133 36.2543 21.8078 37.5732 23.4023 38.4924C24.718 39.2523 26.0731 39.6912 27.3885 39.8513C27.7074 39.8916 28.1061 39.9315 28.425 39.9315C29.5412 39.9315 30.6571 39.7319 31.6538 39.2918C34.4441 38.173 36.3974 35.6146 36.8358 32.6565C37.1548 31.2573 36.9951 29.8589 36.477 28.3795Z" fill="#FF385C"/>
</g>
</g>
</g>
<defs>
<clipPath id="clip0_0_1">
<rect width="1440" height="3047" fill="white" transform="translate(-1064 -489)"/>
</clipPath>
<clipPath id="clip1_0_1">
<rect width="37" height="40" fill="white"/>
</clipPath>
</defs>
</svg>
