<svg width="40" height="40" viewBox="0 0 40 40" fill="none" xmlns="http://www.w3.org/2000/svg">
<rect width="40" height="40" fill="#1E1E1E"/>
<g clip-path="url(#clip0_0_1)">
<rect width="1440" height="3047" transform="translate(-1173 -489)" fill="#FAF8FF"/>
<rect width="1440" height="130" transform="translate(-1173 -45)" fill="white"/>
<g style="mix-blend-mode:luminosity">
<g clip-path="url(#clip1_0_1)">
<path d="M31.6523 17.7647C25.3026 13.9938 14.8289 13.6471 8.76742 15.4868C7.79398 15.7822 6.76459 15.2325 6.46974 14.2594C6.1747 13.2853 6.72362 12.2567 7.69778 11.9608C14.656 9.84869 26.2231 10.2566 33.5329 14.5958C34.4084 15.1156 34.6956 16.2463 34.1767 17.1204C33.6573 17.9959 32.5257 18.2845 31.6523 17.7647ZM31.4443 23.3499C30.9988 24.0728 30.0537 24.2995 29.3318 23.8556C24.0381 20.6016 15.9659 19.659 9.70307 21.5601C8.89091 21.8055 8.03307 21.3475 7.78636 20.5369C7.54166 19.7248 7.99981 18.8685 8.81051 18.6215C15.9649 16.4505 24.859 17.5021 30.9391 21.2385C31.661 21.6831 31.8882 22.6287 31.4443 23.3499ZM29.034 28.7137C28.68 29.2943 27.9242 29.4761 27.3458 29.1223C22.72 26.2952 16.8977 25.6567 10.0409 27.2228C9.38018 27.3744 8.72164 26.9603 8.57096 26.2996C8.41961 25.6391 8.8321 24.9805 9.49431 24.8297C16.9979 23.1143 23.4345 23.8526 28.6266 27.0253C29.2055 27.3788 29.3878 28.1351 29.034 28.7137ZM20 0.301613C9.12098 0.301613 0.301514 9.1209 0.301514 19.9998C0.301514 30.8799 9.12098 39.6985 20 39.6985C30.8793 39.6985 39.6984 30.8799 39.6984 19.9998C39.6984 9.1209 30.8793 0.301613 20 0.301613Z" fill="#1ED760"/>
</g>
</g>
</g>
<defs>
<clipPath id="clip0_0_1">
<rect width="1440" height="3047" fill="white" transform="translate(-1173 -489)"/>
</clipPath>
<clipPath id="clip1_0_1">
<rect width="40" height="40" fill="white"/>
</clipPath>
</defs>
</svg>
